<svg width="82" height="24" viewBox="0 0 82 24" fill="none" xmlns="http://www.w3.org/2000/svg">
<path d="M4.54454 0C1.75513 0 0.18805 1.42105 0.18805 4.57895V5.33684C0.18805 7.67369 0.626833 9.18947 2.13123 11.1474L4.38783 14.0526C5.67284 15.7579 5.82954 16.2947 5.82954 18V18.5368C5.82954 20.0211 5.51613 20.5579 4.6699 20.5579C3.88636 20.5579 3.51026 20.0211 3.51026 18.9158V14.8105H0V19.5158C0 22.4211 1.47306 23.9684 4.32515 23.9684H5.01466C8.14883 23.9684 9.59054 21.9158 9.59054 18.4737V17.7158C9.59054 15.0316 9.08907 13.8632 7.49065 11.7789L5.23405 8.84211C4.04307 7.29474 3.79234 6.56842 3.79234 5.24211V4.8C3.79234 3.69474 3.98039 3.1579 4.82661 3.1579C5.67284 3.1579 5.82954 3.75789 5.82954 4.54737V7.92632H9.24578V4.07368C9.24578 1.29474 8.11748 0 5.20271 0H4.54454Z" fill="black"/>
<path d="M17.1201 23.7158V20.4632H15.8038C15.2083 20.4632 15.1456 20.2737 15.1456 19.6737V9.94737H17.1201V6.72632H15.1456V1.13684H11.792V6.72632H9.88021V9.94737H11.792V21.6316C11.792 23.1474 12.6696 23.7158 13.7979 23.7158H17.1201Z" fill="black"/>
<path d="M17.9059 21.1579C17.9059 22.5158 18.6894 23.8105 20.0371 23.8105H20.1311C21.5728 23.8105 22.4504 22.5789 22.8892 21.7895C22.8892 23.2105 23.2653 23.7158 23.9861 23.7158H27.183V20.5895H26.5875C26.1174 20.5895 26.0547 20.4632 26.0547 20.0526V9.94737C26.0547 8.17895 25.4905 6.6 22.2624 6.6H21.6355C18.47 6.6 18.0939 8.5579 18.0939 9.82105V12.2211H21.1027V10.4211C21.1027 9.66316 21.2908 9.34737 21.9489 9.34737H22.0116C22.6071 9.34737 22.8265 9.6 22.8265 10.4526V11.5263C22.8265 12 22.7638 12.0316 22.4191 12.2526C21.9489 12.5053 20.2565 13.2632 19.5043 13.7684C18.282 14.5263 17.9059 15.5053 17.9059 17.1789V21.1579ZM22.8265 19.5158C22.8265 20.3684 22.5444 20.7789 21.9803 20.7789C21.4475 20.7789 21.1967 20.4 21.1967 19.6737V17.3368C21.1967 16.6737 21.2908 16.3263 21.6355 15.9789C21.9803 15.6316 22.4504 15.3474 22.8265 15.1263V19.5158Z" fill="black"/>
<path d="M31.0559 6.72632H27.765V23.7158H31.1186V10.9263C31.1186 10.2632 31.1499 9.88421 31.6827 9.88421C32.2155 9.88421 32.2469 10.2 32.2469 10.9263V14.7158H35.5064V8.5579C35.5064 7.42105 34.9736 6.63158 33.7513 6.63158H33.6259C32.0588 6.63158 31.338 8.24211 31.0559 8.87368V6.72632Z" fill="black"/>
<path d="M45.8753 0.221054L44.3083 15.4105L42.7098 0.221054H39.1369L42.0517 23.7158H45.9694L47.4738 10.0421L48.9468 23.7158H52.7392L55.7166 0.221054H52.3944L50.7646 15.4421L49.1662 0.221054H45.8753Z" fill="black"/>
<path d="M55.6138 21.1579C55.6138 22.5158 56.3973 23.8105 57.745 23.8105H57.839C59.2807 23.8105 60.1583 22.5789 60.5971 21.7895C60.5971 23.2105 60.9732 23.7158 61.694 23.7158H64.8909V20.5895H64.2954C63.8253 20.5895 63.7626 20.4632 63.7626 20.0526V9.94737C63.7626 8.17895 63.1984 6.6 59.9703 6.6H59.3434C56.1779 6.6 55.8018 8.5579 55.8018 9.82105V12.2211H58.8106V10.4211C58.8106 9.66316 58.9987 9.34737 59.6568 9.34737H59.7195C60.315 9.34737 60.5344 9.6 60.5344 10.4526V11.5263C60.5344 12 60.4717 12.0316 60.127 12.2526C59.6568 12.5053 57.9644 13.2632 57.2122 13.7684C55.9899 14.5263 55.6138 15.5053 55.6138 17.1789V21.1579ZM60.5344 19.5158C60.5344 20.3684 60.2523 20.7789 59.6882 20.7789C59.1554 20.7789 58.9046 20.4 58.9046 19.6737V17.3368C58.9046 16.6737 58.9987 16.3263 59.3434 15.9789C59.6882 15.6316 60.1583 15.3474 60.5344 15.1263V19.5158Z" fill="black"/>
<path d="M68.7638 6.72632H65.4729V23.7158H68.8265V10.9263C68.8265 10.2632 68.8578 9.88421 69.3906 9.88421C69.9234 9.88421 69.9548 10.2 69.9548 10.9263V14.7158H73.2143V8.5579C73.2143 7.42105 72.6815 6.63158 71.4592 6.63158H71.3338C69.7667 6.63158 69.0459 8.24211 68.7638 8.87368V6.72632Z" fill="black"/>
<path d="M81.7806 9.53684C81.7806 7.89474 81.0284 6.47369 78.3644 6.47369H77.7689C75.2302 6.47369 74.1332 7.89474 74.1332 10.0421V10.5158C74.1332 12.1263 74.4467 13.3579 75.7944 14.9053L77.7689 17.1789C78.6151 18.1579 78.6778 18.8842 78.6778 19.6105V19.8947C78.6778 20.6842 78.4271 21.0632 77.8942 21.0632C77.2988 21.0632 77.048 20.7789 77.048 19.8947V17.4632H73.9139V20.5263C73.9139 22.4526 74.8855 24 77.5495 24H78.2077C80.9657 24 82 21.9474 82 19.9263V19.4842C82 17.7789 81.6866 16.7053 80.1195 14.8105L78.0823 12.3474C77.4868 11.6211 77.2988 11.3053 77.2988 10.4526V10.1684C77.2988 9.50526 77.4241 9.12632 78.0196 9.12632C78.5211 9.12632 78.7718 9.44211 78.7718 10.0737V12.0947H81.7806V9.53684Z" fill="black"/>
</svg>
